<svg width="24" height="24" viewBox="0 0 24 24" fill="none" xmlns="http://www.w3.org/2000/svg">
<path fill-rule="evenodd" clip-rule="evenodd" d="M5 0C2.23853 0 0 2.23859 0 5V19C0 21.7614 2.23853 24 5 24H19C21.7615 24 24 21.7614 24 19V5C24 2.23859 21.7615 0 19 0H5ZM15.6937 17.2756L17.9573 7.09247C18.1582 6.19489 17.619 5.84351 17.0029 6.0639L3.69592 10.9543C2.78845 11.2928 2.80188 11.7784 3.54187 11.9988L6.94397 13.0145L14.8464 8.26794C15.2181 8.03156 15.5564 8.16254 15.2784 8.39886L8.88611 13.9089L8.63831 17.2596C8.99329 17.2596 9.14734 17.1127 9.33154 16.937L10.9957 15.4102L14.4447 17.8346C15.0775 18.1732 15.5229 17.9943 15.6937 17.2756Z" fill="#3F8CFF"/>
</svg>
