<svg width="24" height="24" viewBox="0 0 24 24" fill="none" xmlns="http://www.w3.org/2000/svg">
<path fill-rule="evenodd" clip-rule="evenodd" d="M5 0C2.23858 0 0 2.23858 0 5V19C0 21.7614 2.23858 24 5 24H19C21.7614 24 24 21.7614 24 19V5C24 2.23858 21.7614 0 19 0H5ZM15.6937 17.2756L17.9573 7.09244C18.1582 6.19487 17.6191 5.8435 17.0029 6.0639L3.69594 10.9543C2.7885 11.2928 2.80189 11.7784 3.54191 11.9988L6.944 13.0145L14.8465 8.26792C15.2182 8.03154 15.5564 8.16251 15.2784 8.39888L8.88614 13.9089L8.63835 17.2597C8.99329 17.2597 9.14732 17.1127 9.33149 16.937L10.9957 15.4102L14.4447 17.8346C15.0775 18.1732 15.5229 17.9943 15.6937 17.2756Z" fill="white"/>
</svg>
